HIERARCHY
ROOT hip
{
	OFFSET 0.000000 0.000000 0.000000
	CHANNELS 6 Xposition Yposition Zposition Xrotation Zrotation Yrotation 
	JOINT abdomen
	{
		OFFSET 0.000000 3.422050 0.000000
		CHANNELS 3 Xrotation Zrotation Yrotation 
		JOINT chest
		{
			OFFSET 0.000000 8.486693 -0.684411
			CHANNELS 3 Xrotation Zrotation Yrotation 
			JOINT neck
			{
				OFFSET 0.000000 10.266162 -0.273764
				CHANNELS 3 Xrotation Zrotation Yrotation 
				JOINT head
				{
					OFFSET 0.000000 3.148285 0.000000
					CHANNELS 3 Xrotation Zrotation Yrotation 
					End Site
					{
						OFFSET 0.000000 3.148289 0.000000
					}
				}
			}
			JOINT lCollar
			{
				OFFSET 3.422053 6.707223 -0.821293
				CHANNELS 3 Yrotation Zrotation Xrotation 
				JOINT lShldr
				{
					OFFSET 3.285171 0.000000 0.000000
					CHANNELS 3 Zrotation Yrotation Xrotation 
					JOINT lForeArm
					{
						OFFSET 10.129278 0.000000 0.000000
						CHANNELS 3 Yrotation Zrotation Xrotation 
						JOINT lHand
						{
							OFFSET 8.486692 0.000000 0.000000
							CHANNELS 3 Zrotation Yrotation Xrotation 
							End Site
							{
								OFFSET 4.106464 0.000000 0.000000
							}
						}
					}
				}
			}
			JOINT rCollar
			{
				OFFSET -3.558935 6.707223 -0.821293
				CHANNELS 3 Yrotation Zrotation Xrotation 
				JOINT rShldr
				{
					OFFSET -3.148289 0.000000 0.000000
					CHANNELS 3 Zrotation Yrotation Xrotation 
					JOINT rForeArm
					{
						OFFSET -10.266159 0.000000 0.000000
						CHANNELS 3 Yrotation Zrotation Xrotation 
						JOINT rHand
						{
							OFFSET -8.349810 0.000000 0.000000
							CHANNELS 3 Zrotation Yrotation Xrotation 
							End Site
							{
								OFFSET -4.106464 0.000000 0.000000
							}
						}
					}
				}
			}
		}
	}
	JOINT lThigh
	{
		OFFSET 5.338403 -1.642589 1.368821
		CHANNELS 3 Xrotation Zrotation Yrotation 
		JOINT lShin
		{
			OFFSET -2.053232 -20.121670 0.000000
			CHANNELS 3 Xrotation Zrotation Yrotation 
			JOINT lFoot
			{
				OFFSET 0.000000 -19.300380 -1.231939
				CHANNELS 3 Xrotation Yrotation Zrotation 
				End Site
				{
					OFFSET 0.000000 -2.463878 4.653993
				}
			}
		}
	}
	JOINT rThigh
	{
		OFFSET -5.338403 -1.642589 1.368821
		CHANNELS 3 Xrotation Zrotation Yrotation 
		JOINT rShin
		{
			OFFSET 2.053232 -20.121670 0.000000
			CHANNELS 3 Xrotation Zrotation Yrotation 
			JOINT rFoot
			{
				OFFSET 0.000000 -19.300380 -1.231939
				CHANNELS 3 Xrotation Yrotation Zrotation 
				End Site
				{
					OFFSET 0.000000 -2.463878 4.653993
				}
			}
		}
	}
}
MOTION
Frames: 8
Frame Time: 0.066652
3.979969 11.169228 -25.420647 0.000000 0.000000 0.000000 -9.714783 -0.048602 -0.050048 14.939384 1.209861 -0.381262 -4.729986 15.587675 11.968493 9.186105 0.031631 4.593441 -10.355238 -19.314611 -12.597238 -40.192940 -49.526672 6.354877 -43.228477 -20.383837 -5.152909 -27.526628 -8.420259 40.346958 -3.202746 20.003399 -8.709120 51.305298 52.339027 15.438625 39.510807 28.603994 -4.341852 19.519192 -0.086560 -64.543716 -64.220673 6.220667 -0.333090 153.684662 5.841012 0.095174 60.681511 8.247020 3.782702 -64.179497 -6.202674 0.274019 153.589371 -5.894410 -0.102977 61.338329 -8.287409 -3.630198 
3.979969 11.169228 -25.420647 0.000000 0.000000 0.000000 -9.047911 -0.048767 -0.050071 13.841143 1.205792 -0.380719 -4.658257 15.234852 11.710746 8.983094 0.038656 4.492010 -9.910284 -19.414860 -11.779414 -40.670025 -49.710045 6.738602 -43.677593 -20.608723 -5.309184 -26.057753 -7.818629 40.292606 -2.685329 20.319073 -8.150948 50.900253 52.159698 15.121311 39.294060 28.489874 -4.236196 18.625994 -0.097444 -64.376587 -64.220673 6.220667 -0.333090 153.684662 5.841012 0.095174 60.681511 8.247020 3.782702 -64.179497 -6.202674 0.274019 153.589371 -5.894410 -0.102977 61.338329 -8.287409 -3.630198 
3.979969 11.169228 -25.420647 0.000000 0.000000 0.000000 -8.380794 -0.048931 -0.050096 12.741789 1.201729 -0.380098 -4.584963 14.882131 11.452816 8.780043 0.045322 4.390540 -9.463351 -19.509150 -10.959862 -41.150852 -49.891342 7.126171 -44.128143 -20.832510 -5.467605 -24.588390 -7.214544 40.253822 -2.169771 20.639690 -7.594274 50.498428 51.978977 14.807320 39.077778 28.375401 -4.131139 17.732147 -0.105726 -64.209198 -64.220673 6.220667 -0.333090 153.684662 5.841012 0.095174 60.681511 8.247020 3.782702 -64.179497 -6.202674 0.274019 153.589371 -5.894410 -0.102977 61.338329 -8.287409 -3.630198 
3.979969 11.169228 -25.420647 0.000000 0.000000 0.000000 -7.713470 -0.049095 -0.050123 11.641516 1.197674 -0.379398 -4.510104 14.529532 11.194689 8.576949 0.051630 4.289032 -9.014586 -19.597443 -10.138734 -41.635433 -50.070553 7.517587 -44.580093 -21.055153 -5.628167 -23.118786 -6.608625 40.230675 -1.656157 20.965176 -7.039186 50.099785 51.796909 14.496622 38.861961 28.260574 -4.026683 16.837776 -0.111397 -64.041626 -64.220673 6.220667 -0.333090 153.684662 5.841012 0.095174 60.681511 8.247020 3.782702 -64.179497 -6.202674 0.274019 153.589371 -5.894410 -0.102977 61.338329 -8.287409 -3.630198 
3.979969 11.169228 -25.420647 0.000000 0.000000 0.000000 -7.045988 -0.049259 -0.050152 10.540540 1.193632 -0.378620 -4.433683 14.177070 10.936352 8.373816 0.057578 4.187488 -8.564127 -19.679676 -9.316175 -42.123756 -50.247631 7.912849 -45.033443 -21.276634 -5.790871 -21.649170 -6.001501 40.223194 -1.144576 21.295443 -6.485764 49.704342 51.613510 14.189216 38.646603 28.145399 -3.922830 15.942995 -0.114453 -63.873886 -64.220673 6.220667 -0.333090 153.684662 5.841012 0.095174 60.681511 8.247020 3.782702 -64.179497 -6.202674 0.274019 153.589355 -5.894410 -0.102977 61.338329 -8.287409 -3.630198 
3.979969 11.169228 -25.420647 0.000000 0.000000 0.000000 -6.378394 -0.049422 -0.050182 9.439054 1.189604 -0.377764 -4.355705 13.824774 10.677799 8.170650 0.063167 4.085911 -8.112129 -19.755831 -8.492351 -42.615822 -50.422535 8.311950 -45.488178 -21.496918 -5.955711 -20.179762 -5.393796 40.231365 -0.635111 21.630415 -5.934087 49.312065 51.428795 13.885075 38.431713 28.029881 -3.819577 15.047921 -0.114889 -63.706062 -64.220673 6.220667 -0.333090 153.684662 5.841012 0.095174 60.681511 8.247020 3.782702 -64.179497 -6.202674 0.274019 153.589355 -5.894410 -0.102977 61.338329 -8.287409 -3.630198 
3.979969 11.169228 -25.420647 0.000000 0.000000 0.000000 -5.710730 -0.049585 -0.050215 8.337263 1.185592 -0.376830 -4.276171 13.472655 10.419019 7.967449 0.068397 3.984304 -7.658741 -19.825867 -7.667415 -43.111637 -50.595261 8.714890 -45.944321 -21.715990 -6.122688 -18.710810 -4.786150 40.255192 -0.127844 21.969994 -5.384232 48.922935 51.242794 13.584183 38.217289 27.914021 -3.716924 14.152687 -0.112706 -63.538231 -64.220673 6.220667 -0.333090 153.684662 5.841012 0.095174 60.681511 8.247020 3.782702 -64.179497 -6.202674 0.274019 153.589371 -5.894411 -0.102977 61.338329 -8.287409 -3.630198 
3.979969 11.169228 -25.420647 0.000000 0.000000 0.000000 -5.043045 -0.049747 -0.050249 7.235375 1.181598 -0.375820 -4.195083 13.120728 10.159992 7.764215 0.073266 3.882666 -7.204114 -19.889750 -6.841527 -43.611156 -50.765736 9.121650 -46.401844 -21.933817 -6.291798 -17.242538 -4.179194 40.294613 0.377144 22.314095 -4.836276 48.536911 51.055504 13.286511 38.003330 27.797821 -3.614871 13.257406 -0.107897 -63.370449 -64.220673 6.220667 -0.333090 153.684662 5.841012 0.095174 60.681511 8.247020 3.782702 -64.179497 -6.202674 0.274019 153.589371 -5.894410 -0.102977 61.338329 -8.287409 -3.630198 
